{"title":"Brick Mansions 2014 1080p.BluRay.5.1.x264 . NVEE","uid":10883620,"size":2039128970,"categoryP":"video","categoryS":"hd___movies","magnet":"?xt=urn:btih:22035a86831211317848a8dc7b032a9dd9f065b4&amp;dn=Brick+Mansions+2014+1080p.BluRay.5.1.x264+.+NVEE&amp;tr=udp%3A%2F%2Ftracker.openbittorrent.com%3A80&amp;tr=udp%3A%2F%2Fopen.demonii.com%3A1337&amp;tr=udp%3A%2F%2Ftracker.coppersurfer.tk%3A6969&amp;tr=udp%3A%2F%2Fexodus.desync.com%3A6969","seeders":1,"leechers":1,"uploader":".NVEE","files":-1,"time":1409060452,"description":"\n\nQuick note :\nPlease seed to a Share Ratio of at least 1.1\nIf you require a torrent release I have posted in the past, not seeding,...\nPlease do not hesitate to inform me in any means you find fit to do so.\nTorrent requests also &quot;Always Welcome.&quot;\n\n\nFULL_INFOs\n\n99.99% -- SYNCED GUARANTEED \n\n&quot;Totally scrutinized / analyzed to be a verified torrent.&quot;\n___________________________________________\n\nSource : Blu-ray ~ 1080p\n\n\n\nSpoken Language : English\n\nAudio : 6 ~ Channels Only\n\n\nSubs Info :\n\nN/A\n\nAll .srt UTF-8 .idx &amp; .ass subs can be turned On/Off\n_____________________________________\n---------------------------------------------------------------------------------\n\nGeneral Metadata\n\nComplete name : Brick Mansions 2014.804p.BluRay.5.1.x264 . NVEE.mp4\nFormat : MPEG-4\nFormat profile : Base Media\nCodec ID : isom\nFile size : 1.90 GiB\nDuration : 1h 30mn\nOverall bit rate : 3 015 Kbps\nEncoded date : UTC 2014-08-26 04:06:42\nTagged date : UTC 2014-08-26 04:06:42\n\n\nVideo\n\nID : 1\nFormat : AVC\nFormat/Info : Advanced Video Codec\nFormat profile : &lt;a class=&quot;__cf_email__&quot; href=&quot;/cdn-cgi/l/email-protection&quot; data-cfemail=&quot;a7efcec0cfe7eb938996&quot;&gt;[email&amp;#160;protected]&lt;/a&gt;&lt;script cf-hash='f9e31' type=&quot;text/javascript&quot;&gt;\n/* &lt;![CDATA[ */!function(){try{var t=&quot;currentScript&quot;in document?document.currentScript:function(){for(var t=document.getElementsByTagName(&quot;script&quot;),e=t.length;e--;)if(t[e].getAttribute(&quot;cf-hash&quot;))return t[e]}();if(t&amp;&amp;t.previousSibling){var e,r,n,i,c=t.previousSibling,a=c.getAttribute(&quot;data-cfemail&quot;);if(a){for(e=&quot;&quot;,r=parseInt(a.substr(0,2),16),n=2;a.length-n;n+=2)i=parseInt(a.substr(n,2),16)^r,e+=String.fromCharCode(i);e=document.createTextNode(e),c.parentNode.replaceChild(e,c)}}}catch(u){}}();/* ]]&gt; */&lt;/script&gt;\nFormat settings, CABAC : Yes\nFormat settings, ReFrames : 3 frames\nCodec ID : avc1\nCodec ID/Info : Advanced Video Coding\nDuration : 1h 30mn\nBit rate : 2 374 Kbps\nMaximum bit rate : 30.5 Mbps\nWidth : 1 920 pixels\nHeight : 804 pixels\nDisplay aspect ratio : 2.40:1\nFrame rate mode : Constant\nFrame rate : 24.000 fps\nColor space : YUV\nChroma subsampling : 4:2:0\nBit depth : 8 bits\nScan type : Progressive\nBits/(Pixel*Frame) : 0.064\nStream size : 1.49 GiB (79%)\nWriting library : x264 core 142 r2453 ea0ca51\nEncoded from Physical Blu-ray / Region B\n\n\nAudio\n\nID : 2\nFormat : AC-3\nFormat/Info : Audio Coding 3\nMode extension : CM (complete main)\nFormat settings, Endianness : Big\nCodec ID : ac-3\nDuration : 1h 30mn\nBit rate mode : Constant\nBit rate : 640 Kbps\nChannel(s) : 6 channels\nChannel positions : Front: L C R, Side: L R, LFE\nSampling rate : 48.0 KHz\nBit depth : 16 bits\nCompression mode : Lossy\nStream size : 413 MiB (21%)\nLanguage : English\nEncoded date : UTC 2014-08-26 04:14:59\nTagged date : UTC 2014-08-26 04:16:05\nEncoded from Physical Blu-ray 6 Channel audio &quot;Always&quot;.\n\n\nEnj0y !\n","torrent":{"xt":"urn:btih:22035a86831211317848a8dc7b032a9dd9f065b4","amp;dn":"Brick+Mansions+2014+1080p.BluRay.5.1.x264+.+NVEE","amp;tr":["udp%3A%2F%2Ftracker.openbittorrent.com%3A80","udp%3A%2F%2Fopen.demonii.com%3A1337","udp%3A%2F%2Ftracker.coppersurfer.tk%3A6969","udp%3A%2F%2Fexodus.desync.com%3A6969"],"infoHash":"22035a86831211317848a8dc7b032a9dd9f065b4","infoHashBuffer":{"type":"Buffer","data":[34,3,90,134,131,18,17,49,120,72,168,220,123,3,42,157,217,240,101,180]},"announce":[],"urlList":[]}}